<svg width="1500" height="1500" viewBox="0 0 1500 1500" version="1.1" xmlns="http://www.w3.org/2000/svg" xmlns:xlink="http://www.w3.org/1999/xlink">
<title>Group</title>
<desc>Created using Figma</desc>
<g id="Canvas" transform="matrix(3 0 0 3 1983 813)">
<g id="Group">
<g id="Rectangle 2">
<use xlink:href="#path0_fill" transform="translate(-661 -271)" fill="#FFFFFF"/>
</g>
<g id="Ellipse">
<mask id="mask0_outline_ins">
<use xlink:href="#path1_fill" fill="white" transform="translate(-561 -171)"/>
</mask>
<g mask="url(#mask0_outline_ins)">
<use xlink:href="#path2_stroke_2x" transform="translate(-561 -171)"/>
</g>
</g>
</g>
</g>
<defs>
<path id="path0_fill" d="M 0 0L 500 0L 500 500L 0 500L 0 0Z"/>
<path id="path1_fill" d="M 300 150C 300 232.843 232.843 300 150 300C 67.1573 300 0 232.843 0 150C 0 67.1573 67.1573 0 150 0C 232.843 0 300 67.1573 300 150Z"/>
<path id="path2_stroke_2x" d="M 260 150C 260 210.751 210.751 260 150 260L 150 340C 254.934 340 340 254.934 340 150L 260 150ZM 150 260C 89.2487 260 40 210.751 40 150L -40 150C -40 254.934 45.0659 340 150 340L 150 260ZM 40 150C 40 89.2487 89.2487 40 150 40L 150 -40C 45.0659 -40 -40 45.0659 -40 150L 40 150ZM 150 40C 210.751 40 260 89.2487 260 150L 340 150C 340 45.0659 254.934 -40 150 -40L 150 40Z"/>
</defs>
</svg>
